<svg xmlns="http://www.w3.org/2000/svg" viewBox="0 0 100 100" fill="none">
  <defs>
    <linearGradient id="bg" x1="0" y1="0" x2="100" y2="100" gradientUnits="userSpaceOnUse">
      <stop offset="0%" stop-color="#6D28D9"/>
      <stop offset="100%" stop-color="#7C3AED"/>
    </linearGradient>
  </defs>
  <rect width="100" height="100" rx="22" fill="url(#bg)"/>
  <!-- Head — shifted up for trunk room -->
  <path d="M50,10 C38,10 28,21 28,34 L28,43 C28,46 32,48 37,48 L63,48 C68,48 72,46 72,43 L72,34 C72,21 62,10 50,10Z"
        fill="rgba(255,255,255,0.18)" stroke="white" stroke-width="5.5" stroke-linejoin="round"/>
  <!-- Left ear -->
  <path d="M28,26 C20,20 8,24 8,37 C8,46 18,50 28,43"
        fill="rgba(251,146,60,0.3)" stroke="#FB923C" stroke-width="5.5" stroke-linejoin="round"/>
  <!-- Right ear -->
  <path d="M72,26 C80,20 92,24 92,37 C92,46 82,50 72,43"
        fill="rgba(251,146,60,0.3)" stroke="#FB923C" stroke-width="5.5" stroke-linejoin="round"/>
  <!-- Trunk -->
  <path d="M50,48 C50,58 46,66 41,70 C36,74 33,71 36,68"
        stroke="#FB923C" stroke-width="6" stroke-linecap="round" fill="none"/>
  <!-- Left eye -->
  <circle cx="42" cy="31" r="7" fill="white" opacity="0.95"/>
  <circle cx="44" cy="30" r="3.5" fill="#4C1D95"/>
  <!-- Right eye -->
  <circle cx="58" cy="31" r="7" fill="white" opacity="0.95"/>
  <circle cx="60" cy="30" r="3.5" fill="#4C1D95"/>
</svg>
