<svg xmlns="http://www.w3.org/2000/svg" viewBox="0 0 1200 630" fill="none">
  <defs>
    <linearGradient id="bg" x1="0" y1="0" x2="1200" y2="630" gradientUnits="userSpaceOnUse">
      <stop offset="0%" stop-color="#6D28D9"/>
      <stop offset="100%" stop-color="#7C3AED"/>
    </linearGradient>
  </defs>
  <rect width="1200" height="630" fill="url(#bg)"/>
  <!-- Elephant — drawn at correct scale, centred -->
  <path d="M600,80 C568,80 544,108 544,140 L544,172 C544,180 552,184 560,184 L640,184 C648,184 656,180 656,172 L656,140 C656,108 632,80 600,80Z"
        fill="rgba(255,255,255,0.15)" stroke="white" stroke-width="6" stroke-linejoin="round"/>
  <path d="M544,120 C524,104 496,112 496,140 C496,160 516,168 544,152"
        fill="rgba(251,146,60,0.2)" stroke="#FB923C" stroke-width="6" stroke-linejoin="round"/>
  <path d="M656,120 C676,104 704,112 704,140 C704,160 684,168 656,152"
        fill="rgba(251,146,60,0.2)" stroke="#FB923C" stroke-width="6" stroke-linejoin="round"/>
  <path d="M600,184 C600,216 590,240 572,252 C556,264 544,252 556,240"
        stroke="#FB923C" stroke-width="8" stroke-linecap="round" fill="none"/>
  <circle cx="580" cy="132" r="12" fill="white" opacity="0.92"/>
  <circle cx="583" cy="130" r="5.5" fill="#4C1D95"/>
  <circle cx="620" cy="132" r="12" fill="white" opacity="0.92"/>
  <circle cx="623" cy="130" r="5.5" fill="#4C1D95"/>
  <!-- Wordmark -->
  <text x="372" y="430" font-family="'Plus Jakarta Sans', Helvetica, Arial, sans-serif" font-weight="700" font-size="96" fill="white" letter-spacing="-2">Cool</text>
  <text x="696" y="430" font-family="'Plus Jakarta Sans', Helvetica, Arial, sans-serif" font-weight="800" font-size="96" fill="#FB923C" letter-spacing="-2">S</text>
  <text x="754" y="430" font-family="'Plus Jakarta Sans', Helvetica, Arial, sans-serif" font-weight="700" font-size="96" fill="white" letter-spacing="-2">cool</text>
  <text x="600" y="510" font-family="'Plus Jakarta Sans', Helvetica, Arial, sans-serif" font-weight="400" font-size="32" fill="rgba(255,255,255,0.65)" text-anchor="middle">Master Your Curriculum, Pressure-Free</text>
</svg>
