<svg xmlns="http://www.w3.org/2000/svg" viewBox="0 0 100 100" fill="none">
  <defs>
    <linearGradient id="bg" x1="0" y1="0" x2="100" y2="100" gradientUnits="userSpaceOnUse">
      <stop offset="0%" stop-color="#6D28D9"/>
      <stop offset="100%" stop-color="#7C3AED"/>
    </linearGradient>
  </defs>
  <!-- Purple rounded box -->
  <rect width="100" height="100" rx="22" fill="url(#bg)"/>
  <!-- Head -->
  <path d="M50,16 C39,16 30,25 30,37 L30,48 C30,51 33,53 36,53 L64,53 C67,53 70,51 70,48 L70,37 C70,25 61,16 50,16Z"
        fill="rgba(255,255,255,0.15)" stroke="white" stroke-width="3" stroke-linejoin="round"/>
  <!-- Left ear -->
  <path d="M30,32 C23,27 14,30 14,40 C14,48 21,51 30,46"
        fill="rgba(251,146,60,0.2)" stroke="#FB923C" stroke-width="3" stroke-linejoin="round"/>
  <!-- Right ear -->
  <path d="M70,32 C77,27 86,30 86,40 C86,48 79,51 70,46"
        fill="rgba(251,146,60,0.2)" stroke="#FB923C" stroke-width="3" stroke-linejoin="round"/>
  <!-- Trunk -->
  <path d="M50,53 C50,62 47,69 42,73 C37,76 34,73 37,70"
        stroke="#FB923C" stroke-width="3.5" stroke-linecap="round" fill="none"/>
  <!-- Left eye -->
  <circle cx="42" cy="36" r="4.5" fill="white" opacity="0.92"/>
  <circle cx="43.2" cy="35.2" r="2" fill="#4C1D95"/>
  <!-- Right eye -->
  <circle cx="58" cy="36" r="4.5" fill="white" opacity="0.92"/>
  <circle cx="59.2" cy="35.2" r="2" fill="#4C1D95"/>
</svg>
